<?xml version="1.0" encoding="UTF-8" standalone="no"?><!DOCTYPE svg PUBLIC "-//W3C//DTD SVG 1.1//EN" "http://www.w3.org/Graphics/SVG/1.1/DTD/svg11.dtd"><svg width="100%" height="100%" viewBox="0 0 12000 6134" version="1.1" xmlns="http://www.w3.org/2000/svg" xmlns:xlink="http://www.w3.org/1999/xlink" xml:space="preserve" xmlns:serif="http://www.serif.com/" style="fill-rule:evenodd;clip-rule:evenodd;stroke-linejoin:round;stroke-miterlimit:2;"><path d="M8667.708,1642.125l0,2293.792c0,20.697 -16.803,37.5 -37.5,37.5l-407.958,0c-20.697,0 -37.5,-16.803 -37.5,-37.5l0,-2293.792c0,-20.697 16.803,-37.5 37.5,-37.5l407.958,0c20.697,0 37.5,16.803 37.5,37.5Z" style="fill:#80ffdd;"/><path d="M5335.708,2293.458c20.708,0 37.5,16.792 37.5,37.5l0,894.917c0,365.5 -173.75,638.375 -479.75,739.042c-84.083,27.667 -178.208,42.333 -281.417,42.333c-103.208,0 -197.292,-14.667 -281.375,-42.333c-306,-100.667 -479.792,-373.542 -479.792,-739.042l0,-894.917c0,-20.708 16.792,-37.5 37.5,-37.5l404.792,0c20.708,0 37.5,16.792 37.5,37.5l0,952.958c0,154.625 123,283.542 277.667,285.542c157.125,2.042 285.125,-124.708 285.125,-281.333l0,-957.167c0,-20.708 16.792,-37.5 37.5,-37.5l404.75,0Z" style="fill:#ffa04c;fill-rule:nonzero;"/><path d="M3699.625,2150.458l0,-358.167c0,-20.708 -16.792,-37.5 -37.5,-37.5l-1373.208,0c-20.708,0 -37.5,16.792 -37.5,37.5l0,2143.625c0,20.708 16.792,37.5 37.5,37.5l417.208,0c20.708,0 37.5,-16.792 37.5,-37.5l0,-843.875l807.875,0c20.708,0 37.5,-16.792 37.5,-37.5l0,-358.167c0,-20.708 -16.792,-37.5 -37.5,-37.5l-807.875,0l0,-470.917l918.542,0c20.708,0 37.5,-16.792 37.5,-37.5l-0.042,-0Z" style="fill:#f05300;fill-rule:nonzero;"/><path d="M10507.083,2298.417c26.458,0 44.583,26.667 34.875,51.25l-697.875,1769.583c-1.5,3.833 -3.042,7.667 -4.583,11.542c-40.167,100.042 -93.583,209.5 -169.583,303.75c-147.375,182.667 -379.667,308 -765,196c-18.333,-5.333 -29.875,-23.5 -26.667,-42.333l56.708,-334.542c3.5,-20.708 23.417,-34.625 44.042,-30.542c308.958,60.625 369.917,-39.125 461.708,-284.083c0,-0.042 0.042,-0.125 0.083,-0.167c4.25,-11.583 4.167,-24.333 -0.333,-35.833l-611.25,-1553.375c-9.667,-24.583 8.458,-51.25 34.875,-51.25l407.333,0c15.583,0 29.542,9.625 35.083,24.208l370.583,978.417l362.292,-978.167c5.458,-14.708 19.458,-24.458 35.167,-24.458l432.542,0Z" style="fill:#fff566;fill-rule:nonzero;"/><path d="M5813.167,3845.5c19.958,12.75 39.542,25.375 59.5,37.292c4.958,3 9.833,6.083 14.833,9l15.042,8.625c9.875,5.875 20,11.375 29.958,17.042c20.208,10.917 40.333,21.583 60.667,31.792c10.25,4.958 20.333,10.083 30.708,14.708l15.25,7.333c5.083,2.417 10.292,4.708 15.417,7.042c20.417,9.542 41.5,17.75 62.083,26.542c10.292,4.417 20.833,8.292 31.208,12.458c10.417,4.042 21,7.792 31.458,11.667c42.042,15.167 84.667,28.292 127.625,39.333c85.958,22.208 173.208,35.708 259.667,44.333c10.792,1.208 21.625,2.042 32.458,2.833c5.417,0.333 10.792,0.958 16.167,1.375l16.167,1.25c10.75,0.958 21.542,1.458 32.333,2.042c10.75,0.75 21.542,0.833 32.292,1.458c43,1.708 85.792,2.708 128.542,2.083c85.458,-1.875 170.167,-8.708 254.875,-19.667c84.667,-10.917 169.917,-26.083 253.958,-50.75c42,-12.292 83.5,-27.208 124.458,-44.125c10.375,-4 20.458,-8.625 30.667,-13.042c5.083,-2.25 10.25,-4.417 15.292,-6.75l15.125,-7.167c10.125,-4.75 20.25,-9.542 30.333,-14.5c10.083,-4.958 20.375,-9.667 30.292,-15.042c20.083,-10.375 39.958,-21.292 60.167,-32.083c19.75,-11.375 39.708,-22.792 59.583,-34.708c10.083,-5.75 19.667,-12.167 29.625,-18.25l14.958,-9.125c4.958,-3.083 9.792,-6.333 14.708,-9.542c19.917,-12.5 39.5,-25.625 59.708,-38.542c12.208,-7.75 28.375,-4.167 36.125,8.042c5.333,8.333 5.292,18.583 0.875,26.667l-0.083,0.125c-3,5.417 -6.125,10.792 -9.25,16.125c-3.125,5.375 -6.25,10.75 -9.5,16.042c-3.167,5.333 -6.5,10.583 -9.917,15.75c-3.375,5.208 -6.75,10.458 -10.25,15.542c-3.5,5.125 -6.917,10.333 -10.5,15.417l-10.917,15.167c-7.333,10.083 -14.833,20.083 -22.667,29.792c-7.833,9.708 -15.417,19.75 -23.625,29.208l-24.875,28.25l-25.792,27.625c-8.792,9.042 -18,17.625 -27.042,26.5c-9,8.917 -18.5,17.292 -27.833,25.875c-4.708,4.25 -9.375,8.625 -14.167,12.792l-14.667,12.125l-14.75,12.167c-4.917,4.042 -10,7.875 -15.042,11.792c-10.083,7.792 -20.083,15.833 -30.5,23.25c-41.25,30.375 -84.417,58.625 -129.292,84.583l-33.958,19.042c-11.417,6.25 -23.042,12.042 -34.583,18.083c-23.292,11.667 -46.833,23.125 -70.958,33.25c-48.042,20.833 -97.708,38.083 -148.333,52.083c-50.667,13.75 -102.375,23.708 -154.458,30.042c-52.083,6.208 -104.542,8.875 -156.833,8.458c-104.583,-1 -208.625,-14.75 -308.625,-41.917c-100.125,-26.583 -196.083,-65.5 -287.042,-111.792c-45.458,-23.208 -89.75,-48.292 -132.458,-75.667c-10.583,-7 -21.25,-13.833 -31.708,-21c-10.417,-7.292 -20.917,-14.208 -31.125,-21.75l-15.333,-11.125c-5.083,-3.75 -10,-7.75 -15,-11.667l-14.875,-11.75l-14.625,-12.042c-9.75,-7.958 -19.333,-16.208 -28.792,-24.542c-9.417,-8.333 -18.5,-17.208 -27.625,-25.833c-9.125,-8.625 -17.917,-17.708 -26.833,-26.5c-8.667,-9.167 -17.167,-18.417 -25.542,-27.75c-16.75,-18.708 -32.667,-38.083 -47.583,-58.167c-15.083,-19.917 -28.792,-40.917 -41.625,-62.25c-7.417,-12.333 -3.417,-28.333 8.875,-35.75c8.75,-5.25 19.333,-4.792 27.417,0.333l0.167,0.125l0,0.333Z" style="fill:#5d4cff;fill-rule:nonzero;"/><path d="M5613.583,4015.583c-111.708,-306.375 121.292,-397.875 289.375,-320.208c-169.042,35.25 -278.542,129.125 -289.375,320.208Z" style="fill:#fff;fill-rule:nonzero;"/><path d="M7999.75,3960.292c111.708,-228.708 -103.208,-448.917 -310.625,-284.042c191.5,-8.5 296.292,109.792 310.625,284.042Z" style="fill:#fff;fill-rule:nonzero;"/><path d="M6636.208,1740.167c-27.917,-27.875 -66.458,-45.125 -109,-45.125c-85.083,0 -154.083,69 -154.083,154.083l0,491.208c-76.792,-41.208 -163.75,-64.417 -255.833,-64.417c-311.5,0 -564,265.708 -564,593.417c0,327.708 252.5,593.417 564,593.417c295.208,0 537.5,-238.625 562,-542.583c1.333,-16.75 2.042,-33.708 2.042,-50.833l0,-1020.208c0,-42.542 -17.25,-81.042 -45.125,-108.958Zm-518.917,1429.208c-141.292,0 -255.833,-134.333 -255.833,-300.042c0,-165.708 114.542,-300 255.833,-300c141.292,0 255.833,134.333 255.833,300c0,165.667 -114.542,300.042 -255.833,300.042Z" style="fill:#0d53ff;fill-rule:nonzero;"/><path d="M6284,2772.542c0,39.375 -31.917,71.292 -71.292,71.292c-39.375,0 -71.25,-31.917 -71.25,-71.292c0,-39.375 31.917,-71.25 71.25,-71.25c39.333,0 71.292,31.917 71.292,71.25Z" style="fill:#621aff;fill-rule:nonzero;"/><path d="M7888.042,1740.167c-27.917,-27.875 -66.458,-45.125 -109,-45.125c-85.083,0 -154.083,69 -154.083,154.083l0,491.208c-76.792,-41.208 -163.75,-64.417 -255.833,-64.417c-311.5,0 -564,265.708 -564,593.417c0,327.708 252.5,593.417 564,593.417c295.208,0 537.5,-238.625 562,-542.583c1.333,-16.75 2.042,-33.708 2.042,-50.833l0,-1020.208c0,-42.542 -17.25,-81.042 -45.125,-108.958Zm-518.917,1429.208c-141.292,0 -255.833,-134.333 -255.833,-300.042c0,-165.708 114.542,-300 255.833,-300c141.292,0 255.833,134.333 255.833,300c0,165.667 -114.542,300.042 -255.833,300.042Z" style="fill:#006773;fill-rule:nonzero;"/><path d="M7535.833,2772.542c0,39.375 -31.917,71.292 -71.292,71.292c-39.375,0 -71.25,-31.917 -71.25,-71.292c0,-39.375 31.917,-71.25 71.25,-71.25c39.333,0 71.292,31.917 71.292,71.25Z" style="fill:#c64cff;fill-rule:nonzero;"/></svg>